<svg width="290" height="165" viewBox="0 0 290 165" fill="none" xmlns="http://www.w3.org/2000/svg">
<mask id="mask0_43_213" style="mask-type:alpha" maskUnits="userSpaceOnUse" x="0" y="0" width="300" height="300">
<rect width="300" height="300" fill="#D9D9D9"/>
</mask>
<g mask="url(#mask0_43_213)">
<path d="M 48.6669 28.1236 C 47.7738 25.1756 47.7242 22.1089 51.5576 20.873 C 55.1432 19.7205 57.0913 21.8725 58.0844 24.952 C 60.1184 30.764 62.2683 36.593 64.1704 42.505 C 64.9272 44.728 64.7883 46.592 63.6695 47.85 C 61.432 50.365 56.4098 49.083 55.1848 45.971 C 52.5711 40.079 50.5531 34.151 48.6669 28.1236 Z M 50.1176 57.865 C 48.6288 54.952 46.2054 53.676 43.1837 55.024 C 40.2779 56.388 39.5636 58.996 41.0364 62.024 C 43.6139 67.323 45.8116 72.805 48.521 78.005 C 52.1667 84.981 55.9443 91.858 60.1176 98.437 C 60.9859 99.852 63.9528 100.614 65.7716 100.277 C 66.1354 100.21 66.5152 100.027 66.9108 99.728 C 68.6571 98.204 68.8076 95.401 67.9349 93.162 C 62.1117 81.412 56.0566 69.63 50.1176 57.865 Z M 87.2594 97.831 C 90.409 95.559 88.7242 93.209 87.1877 90.642 C 84.2305 85.526 81.2575 80.525 78.68 75.226 C 75.5184 69.023 73.0003 62.437 69.5909 56.317 C 68.8907 55.397 68.0587 54.576 67.0629 54.085 C 66.0831 53.479 64.9396 53.204 63.8801 53.175 C 63.5322 53.127 63.2686 53.326 62.8889 53.508 C 60.315 55.036 59.9051 58.864 61.1779 61.629 C 65.3804 70.565 69.6989 79.518 74.0332 88.355 C 75.422 91.136 76.9426 93.817 78.727 96.3 C 80.9114 99.308 83.9783 100.203 87.2594 97.831 Z M 158.11 96.436 C 156.878 101.091 159.798 105.614 164.589 106.865 C 180.103 110.89 195.533 114.669 210.719 119.356 C 227.382 124.482 243.425 131.523 258.402 140.3 C 258.734 140.464 258.538 141.025 258.09 140.846 C 225.424 126.683 190.717 117.888 155.361 114.652 C 154.534 114.656 153.69 114.775 152.931 115.14 C 152.171 115.506 151.512 116.004 150.953 116.633 C 147.305 121.66 151.051 128.768 157.212 129.502 L 197.294 134.449 C 197.642 134.497 197.842 134.76 197.794 135.107 C 197.762 135.338 197.499 135.537 197.251 135.62 L 142.735 136.8 C 160.567 137.733 178.187 139.342 195.731 142.354 C 199.194 142.95 198.568 146.63 195.042 146.496 C 164.133 145.287 133.453 146.698 103.625 155.642 C 60.6099 168.532 14.4922 143.096 3.5195 100.153 C -7.6578 56.122 19.4176 12.3144 63.6782 3.2454 C 67.332 2.4555 70.9379 2.0122 74.5757 1.3378 C 75.783 1.1515 76.9743 1.0805 78.1657 1.0097 C 79.589 0.9709 80.9962 1.0476 82.5036 1.2558 C 88.9808 2.2681 95.39 2.9178 101.671 4.4916 C 106.925 5.8057 111.82 8.0117 116.831 10.2338 C 125.424 13.8922 133.69 18.2117 142.431 21.6552 C 170.447 32.704 197.612 45.636 222.236 63.278 C 234.931 72.328 247.577 81.724 259.664 91.75 C 244.847 81.818 229.749 72.201 214.129 63.805 C 208.518 60.794 204.959 66.894 210.11 70.665 L 215.81 74.748 C 215.91 74.879 215.894 74.995 215.762 75.094 C 215.762 75.094 215.63 75.194 215.53 75.062 L 174.197 56.054 C 165.752 52.181 156.424 59.837 159.104 68.681 C 159.724 70.179 161.088 71.426 162.647 72.112 C 172.848 76.111 183.377 79.448 193.266 83.992 C 204.715 89.221 216.28 94.467 226.81 101.218 C 244.083 112.195 260.717 124.378 277.53 136.116 C 278.51 136.722 277.803 137.566 276.823 136.96 C 243.768 115.329 207.203 99.451 168.818 89.912 C 164.159 88.563 159.343 91.781 158.11 96.436 Z M 148.699 88.428 C 151.517 64.573 143.315 44.374 125.188 28.4535 C 102.205 8.3315 67.0221 6.4144 41.84 23.6501 C 39.1024 25.5081 38.1677 27.1444 39.4927 30.387 C 41.4701 34.897 42.9517 39.574 44.5653 44.152 C 45.6743 47.247 45.276 50.135 41.5745 51.271 C 38.2368 52.34 36.2727 50.303 35.2478 47.455 C 33.6864 43.355 32.257 39.156 30.7116 34.941 C 30.6275 34.694 30.4275 34.431 30.2115 34.284 C 29.5477 33.957 28.8041 34.207 28.4926 34.753 C 28.1651 35.414 27.8536 35.959 27.4101 36.604 C 13.5821 53.76 9.0185 73.137 13.3875 94.572 C 19.9851 127.26 50.2815 150.04 85.5424 147.966 C 101.51 146.994 116.471 140.469 128.015 129.588 C 139.544 118.823 146.88 104.183 148.699 88.428 Z M 78.8137 109.376 C 77.7658 108.407 75.0511 108.385 73.5482 109.002 C 71.054 109.952 71.2558 113.628 72.5923 115.931 C 75.4495 120.915 81.5939 127.766 84.0447 127.987 C 85.568 128.08 87.8985 127.46 88.7694 126.286 C 89.6563 124.996 90.055 122.109 89.2544 121.057 C 85.922 116.948 82.5578 113.071 78.8137 109.376 Z M 99.467 108.697 C 96.491 106.286 89.913 111.144 91.95 114.368 C 94.47 118.364 98.03 121.68 101.226 125.064 C 102.975 126.953 106.928 126.558 108.406 124.408 C 108.538 124.309 108.57 124.078 108.586 123.962 C 108.957 122.13 108.828 119.641 107.859 118.095 C 105.507 114.593 102.643 111.372 99.467 108.697 Z" fill="white"/>
</g>
</svg>
